<svg width="41" height="48" viewBox="0 0 41 48" fill="none" xmlns="http://www.w3.org/2000/svg">
<path fill-rule="evenodd" clip-rule="evenodd" d="M23.9618 28.0596H31.9296C32.4826 28.0596 32.8129 28.6803 32.8129 29.2804V36.3935C32.8211 36.763 32.6881 37.1214 32.4417 37.3945V37.5678H32.1677C32.0915 37.5966 32.011 37.6124 31.9296 37.6144H23.9618C23.4574 37.6144 23.0785 37.0893 23.0785 36.3935V29.2804C23.0785 28.6803 23.4088 28.0596 23.9618 28.0596ZM24.1037 29.2812V36.3935C24.1055 36.4582 24.1149 36.5225 24.1319 36.5849H24.7463V32.3253H27.6699V34.7124H31.7891V29.2812C31.7888 29.2179 31.7784 29.155 31.7584 29.095H24.1319C24.1128 29.1552 24.1033 29.218 24.1037 29.2812ZM27.6696 35.7424H31.4169V36.5337H27.6696V35.7424ZM26.5993 34.7073H26.6454V33.3549H25.77V36.1502H26.5993V34.7073Z" fill="#FFB900"/>
<path d="M32.8129 36.3935H32.5171L32.5173 36.4L32.8129 36.3935ZM32.4417 37.3945L32.2221 37.1964L32.1459 37.2808V37.3945H32.4417ZM32.4417 37.5678V37.8636H32.7374V37.5678H32.4417ZM32.1677 37.5678V37.2721H32.1137L32.0631 37.2912L32.1677 37.5678ZM31.9296 37.6144V37.9102L31.9368 37.91L31.9296 37.6144ZM24.1037 36.3935H23.8079L23.8081 36.4016L24.1037 36.3935ZM24.1037 29.2812L24.3995 29.2812L24.3994 29.2795L24.1037 29.2812ZM24.1319 36.5849L23.8465 36.6624L23.9057 36.8807H24.1319V36.5849ZM24.7463 36.5849V36.8807H25.042V36.5849H24.7463ZM24.7463 32.3253V32.0295H24.4505V32.3253H24.7463ZM27.6699 32.3253H27.9656V32.0295H27.6699V32.3253ZM27.6699 34.7124H27.3742V35.0082H27.6699V34.7124ZM31.7891 34.7124V35.0082H32.0848V34.7124H31.7891ZM31.7891 29.2812L32.0848 29.2812L32.0848 29.2797L31.7891 29.2812ZM31.7584 29.095L32.0389 29.0014L31.9714 28.7993H31.7584V29.095ZM24.1319 29.095V28.7993H23.9152L23.8499 29.0058L24.1319 29.095ZM31.4169 35.7424H31.7126V35.4467H31.4169V35.7424ZM27.6696 35.7424V35.4467H27.3738V35.7424H27.6696ZM31.4169 36.5337V36.8294H31.7126V36.5337H31.4169ZM27.6696 36.5337H27.3738V36.8294H27.6696V36.5337ZM26.6454 34.7073V35.003H26.9411V34.7073H26.6454ZM26.5993 34.7073V34.4115H26.3035V34.7073H26.5993ZM26.6454 33.3549H26.9411V33.0591H26.6454V33.3549ZM25.77 33.3549V33.0591H25.4742V33.3549H25.77ZM25.77 36.1502H25.4742V36.4459H25.77V36.1502ZM26.5993 36.1502V36.4459H26.895V36.1502H26.5993ZM31.9296 27.7638H23.9618V28.3553H31.9296V27.7638ZM33.1087 29.2804C33.1087 28.9312 33.0136 28.5675 32.8256 28.2822C32.6353 27.9935 32.3317 27.7638 31.9296 27.7638V28.3553C32.0805 28.3553 32.2186 28.436 32.3317 28.6077C32.4471 28.7828 32.5172 29.0296 32.5172 29.2804H33.1087ZM33.1087 36.3935V29.2804H32.5172V36.3935H33.1087ZM32.6612 37.5927C32.9585 37.2633 33.1184 36.8315 33.1086 36.387L32.5173 36.4C32.5238 36.6944 32.4178 36.9796 32.2221 37.1964L32.6612 37.5927ZM32.7374 37.5678V37.3945H32.1459V37.5678H32.7374ZM32.1677 37.8636H32.4417V37.2721H32.1677V37.8636ZM31.9368 37.91C32.0516 37.9072 32.165 37.885 32.2723 37.8444L32.0631 37.2912C32.018 37.3082 31.9704 37.3175 31.9224 37.3187L31.9368 37.91ZM23.9618 37.9101H31.9296V37.3186H23.9618V37.9101ZM22.7827 36.3935C22.7827 36.7924 22.891 37.1611 23.0913 37.4381C23.2935 37.7178 23.5971 37.9101 23.9618 37.9101V37.3186C23.8222 37.3186 23.6841 37.2484 23.5707 37.0916C23.4554 36.9321 23.3742 36.6904 23.3742 36.3935H22.7827ZM22.7827 29.2804V36.3935H23.3742V29.2804H22.7827ZM23.9618 27.7638C23.5597 27.7638 23.2561 27.9935 23.0658 28.2822C22.8778 28.5675 22.7827 28.9312 22.7827 29.2804H23.3742C23.3742 29.0296 23.4443 28.7828 23.5597 28.6077C23.6728 28.436 23.8109 28.3553 23.9618 28.3553V27.7638ZM24.3995 36.3935V29.2812H23.808V36.3935H24.3995ZM24.4173 36.5074C24.4065 36.4677 24.4005 36.4268 24.3993 36.3855L23.8081 36.4016C23.8105 36.4897 23.8233 36.5773 23.8465 36.6624L24.4173 36.5074ZM24.7463 36.2892H24.1319V36.8807H24.7463V36.2892ZM24.4505 32.3253V36.5849H25.042V32.3253H24.4505ZM27.6699 32.0295H24.7463V32.621H27.6699V32.0295ZM27.9656 34.7124V32.3253H27.3742V34.7124H27.9656ZM31.7891 34.4167H27.6699V35.0082H31.7891V34.4167ZM31.4933 29.2812V34.7124H32.0848V29.2812H31.4933ZM31.4778 29.1886C31.4879 29.2189 31.4932 29.2507 31.4933 29.2827L32.0848 29.2797C32.0843 29.1851 32.0688 29.0911 32.0389 29.0014L31.4778 29.1886ZM24.1319 29.3907H31.7584V28.7993H24.1319V29.3907ZM24.3994 29.2795C24.3993 29.2471 24.4041 29.2149 24.4139 29.1842L23.8499 29.0058C23.8215 29.0955 23.8074 29.189 23.808 29.283L24.3994 29.2795ZM31.4169 35.4467H27.6696V36.0381H31.4169V35.4467ZM31.7126 36.5337V35.7424H31.1211V36.5337H31.7126ZM27.6696 36.8294H31.4169V36.2379H27.6696V36.8294ZM27.3738 35.7424V36.5337H27.9653V35.7424H27.3738ZM26.6454 34.4115H26.5993V35.003H26.6454V34.4115ZM26.3496 33.3549V34.7073H26.9411V33.3549H26.3496ZM25.77 33.6506H26.6454V33.0591H25.77V33.6506ZM26.0657 36.1502V33.3549H25.4742V36.1502H26.0657ZM26.5993 35.8545H25.77V36.4459H26.5993V35.8545ZM26.3035 34.7073V36.1502H26.895V34.7073H26.3035Z" fill="#FFB900"/>
<path fill-rule="evenodd" clip-rule="evenodd" d="M38.2747 7.88853H36.2854V4.94257C36.284 3.73014 35.3145 2.74603 34.1143 2.73892H29.9463C29.6616 1.62723 28.6635 0.854702 27.5269 0.866341H12.4702C11.3197 0.857486 10.3153 1.65222 10.0483 2.78289H5.6959C4.4922 2.78432 3.51716 3.77051 3.51716 4.98654V7.88853H1.90678C1.48528 7.88081 1.07864 8.04585 0.779581 8.34602C0.480522 8.64619 0.314527 9.05592 0.319442 9.48178V20.0112C0.336127 21.555 1.10157 22.9924 2.36762 23.8572H2.38298C2.57453 23.9903 2.77563 24.1087 2.98463 24.2116V24.1883C3.23354 24.3024 3.49022 24.3983 3.7527 24.4754V46.8662H36.4185V24.4883C36.7027 24.4424 36.9766 24.3461 37.2276 24.2038C38.8323 23.4385 39.8535 21.8039 39.8467 20.0112V9.48178C39.8515 9.05865 39.6876 8.65134 39.3919 8.35164C39.0962 8.05193 38.6936 7.88503 38.2747 7.88853ZM10.9929 3.39767C10.9888 2.99988 11.1434 2.61717 11.4218 2.33587C11.7003 2.05458 12.0791 1.89841 12.4728 1.90261H27.5305C27.9242 1.89841 28.3031 2.05458 28.5815 2.33587C28.8599 2.61717 29.0145 2.99988 29.0104 3.39767V3.53993C29.0145 3.93772 28.8599 4.32044 28.5815 4.60173C28.3031 4.88302 27.9242 5.03919 27.5305 5.03499H12.4728C12.0791 5.03919 11.7003 4.88302 11.4218 4.60173C11.1434 4.32044 10.9888 3.93772 10.9929 3.53993V3.39767ZM4.88183 4.16217C4.66676 4.38237 4.548 4.68045 4.55211 4.98977V7.8893H35.2735V4.94322C35.2762 4.6323 35.1552 4.33331 34.9376 4.11345C34.7199 3.89359 34.424 3.77131 34.1162 3.77409H30.0197C29.9121 5.08365 28.8189 6.08525 27.5183 6.06578H12.461C11.181 6.07912 10.102 5.10457 9.97232 3.81807H5.69657C5.39036 3.81804 5.09691 3.94198 4.88183 4.16217ZM31.7902 22.479C31.7484 22.5307 31.7012 22.5775 31.6494 22.6187L31.6493 22.6188C31.5981 22.6653 31.5469 22.7119 31.4957 22.7636C30.1029 23.9835 28.0149 23.9136 26.7051 22.6032V8.9249H31.7979L31.7902 22.479ZM13.5338 8.92407H8.48969V22.6127C9.7995 23.9232 11.8875 23.9931 13.2803 22.7731C13.3152 22.7378 13.3501 22.705 13.3842 22.6729L13.3842 22.6728L13.4024 22.6557L13.4313 22.6282L13.5338 22.5325V8.92407ZM14.5575 8.92407H19.6502V22.4782C19.6092 22.5305 19.5619 22.5774 19.5094 22.6179C19.4582 22.6645 19.407 22.711 19.3558 22.7627C17.9625 23.9814 15.8755 23.9116 14.5652 22.6024L14.5575 8.92407ZM25.6665 8.92407H20.6736L20.6685 22.6593C21.9839 23.9262 24.037 23.9755 25.4105 22.7731L25.5641 22.6282L25.6665 22.5325V8.92407ZM1.34369 20.0128V9.4825C1.33864 9.33281 1.39529 9.18771 1.50012 9.0818C1.60495 8.9759 1.74858 8.91867 1.89675 8.92378H7.45548V22.5167C6.88146 23.121 6.12132 23.5104 5.29958 23.6212C4.46771 23.6537 3.64481 23.4378 2.93373 23.0004C1.95202 22.3271 1.35824 21.2114 1.34369 20.0128ZM8.58246 42.9916H19.0849L19.1003 29.0915C19.0898 28.9939 19.0128 28.9171 18.9159 28.9079H8.76936C8.67111 28.9149 8.59218 28.9925 8.58246 29.0915V42.9916ZM8.57166 44.0255H19.0834V45.8359H8.5819L8.57166 44.0255ZM36.7702 23.2839C38.0285 22.6929 38.8293 21.4138 38.8184 20.012L38.7953 9.48245C38.8004 9.33278 38.7437 9.18769 38.6389 9.08179C38.5341 8.97589 38.3905 8.91867 38.2423 8.92378H32.7787V22.6838C33.3178 23.217 34.0182 23.5521 34.768 23.6356L34.6733 24.6702C33.7405 24.5691 32.8641 24.1694 32.1719 23.5296L32.1489 23.5503C31.3265 24.2887 30.2639 24.6957 29.1637 24.6935C28.0386 24.6939 26.9526 24.277 26.1118 23.5218L26.0888 23.5425C24.359 25.078 21.766 25.0646 20.0517 23.5115L20.0312 23.5322C18.3006 25.068 15.7067 25.0546 13.9916 23.5011L13.9686 23.5218C12.2385 25.0557 9.64732 25.0435 7.93152 23.4934C7.48145 23.8909 6.95994 24.1974 6.39537 24.396V24.4116C5.96327 24.5835 5.50285 24.6713 5.03843 24.6702H4.78241V45.8431H7.56284V29.0905C7.57246 28.4218 8.10676 27.882 8.76872 27.8723H18.9099C19.5728 27.8806 20.1086 28.4208 20.1183 29.0905V45.8431H35.403V24.6004H35.0855H34.7885L34.8167 23.5658C36.2171 23.6046 36.6985 23.3252 36.6985 23.3252L36.9545 23.7003L36.7702 23.2839Z" fill="#FFB900"/>
<path d="M36.2854 7.88853H35.9897V8.18427H36.2854V7.88853ZM38.2747 7.88853V8.18429L38.2772 8.18426L38.2747 7.88853ZM36.2854 4.94257L36.5812 4.94257L36.5812 4.94224L36.2854 4.94257ZM34.1143 2.73892L34.1161 2.44318H34.1143V2.73892ZM29.9463 2.73892L29.6598 2.81229L29.7168 3.03467H29.9463V2.73892ZM27.5269 0.866341L27.5269 1.1621L27.5299 1.16207L27.5269 0.866341ZM12.4702 0.866341L12.468 1.16209H12.4702V0.866341ZM10.0483 2.78289V3.07864H10.2823L10.3361 2.85088L10.0483 2.78289ZM5.6959 2.78289L5.6959 2.48715L5.69555 2.48715L5.6959 2.78289ZM3.51716 4.98654L3.8129 4.98654L3.8129 4.98654L3.51716 4.98654ZM3.51716 7.88853V8.18427H3.8129V7.88853H3.51716ZM1.90678 7.88853L1.90136 8.18427H1.90678V7.88853ZM0.779581 8.34602L0.57007 8.13729L0.57007 8.13729L0.779581 8.34602ZM0.319442 9.48178H0.615206L0.615167 9.47837L0.319442 9.48178ZM0.319442 20.0112H0.0236802L0.0237148 20.0144L0.319442 20.0112ZM2.36762 23.8572L2.2008 24.1014L2.27625 24.153H2.36762V23.8572ZM2.38298 23.8572L2.55172 23.6143L2.47563 23.5615H2.38298V23.8572ZM2.98463 24.2116L2.85407 24.4769L3.28038 24.6867V24.2116H2.98463ZM2.98463 24.1883L3.10787 23.9194L2.68889 23.7274V24.1883H2.98463ZM3.7527 24.4754H4.04844V24.254L3.836 24.1916L3.7527 24.4754ZM3.7527 46.8662H3.45695V47.162H3.7527V46.8662ZM36.4185 46.8662V47.162H36.7143V46.8662H36.4185ZM36.4185 24.4883L36.3713 24.1964L36.1228 24.2365V24.4883H36.4185ZM37.2276 24.2038L37.1003 23.9369L37.0908 23.9414L37.0818 23.9465L37.2276 24.2038ZM39.8467 20.0112H39.5509L39.5509 20.0123L39.8467 20.0112ZM39.8467 9.48178L39.5509 9.47841V9.48178H39.8467ZM39.3919 8.35164L39.6024 8.14393L39.6024 8.14392L39.3919 8.35164ZM11.4218 2.33587L11.2116 2.12782L11.2116 2.12782L11.4218 2.33587ZM10.9929 3.39767L11.2887 3.39767L11.2887 3.39458L10.9929 3.39767ZM12.4728 1.90261L12.4697 2.19835H12.4728V1.90261ZM27.5305 1.90261V2.19837L27.5336 2.19834L27.5305 1.90261ZM28.5815 2.33587L28.7917 2.12782L28.7917 2.12782L28.5815 2.33587ZM29.0104 3.39767L28.7146 3.39458V3.39767H29.0104ZM29.0104 3.53993L28.7146 3.53993L28.7146 3.54302L29.0104 3.53993ZM27.5305 5.03499L27.5336 4.73925H27.5305V5.03499ZM12.4728 5.03499L12.4728 4.73923L12.4697 4.73927L12.4728 5.03499ZM11.4218 4.60173L11.2116 4.80978L11.2116 4.80978L11.4218 4.60173ZM10.9929 3.53993L11.2887 3.54302V3.53993H10.9929ZM4.55211 4.98977L4.84788 4.98977L4.84782 4.98584L4.55211 4.98977ZM4.88183 4.16217L5.0934 4.36882L5.0934 4.36882L4.88183 4.16217ZM4.55211 7.8893H4.25636V8.18504H4.55211V7.8893ZM35.2735 7.8893V8.18504H35.5692V7.8893H35.2735ZM35.2735 4.94322L34.9777 4.94059V4.94322H35.2735ZM34.9376 4.11345L35.1478 3.90539L35.1478 3.90539L34.9376 4.11345ZM34.1162 3.77409L34.1162 4.06985L34.1189 4.06983L34.1162 3.77409ZM30.0197 3.77409V3.47835H29.7472L29.7249 3.74988L30.0197 3.77409ZM27.5183 6.06578L27.5227 5.77004H27.5183V6.06578ZM12.461 6.06578L12.461 5.77002L12.4579 5.77005L12.461 6.06578ZM9.97232 3.81807L10.2666 3.78841L10.2398 3.52232H9.97232V3.81807ZM5.69657 3.81807L5.69655 4.11381H5.69657V3.81807ZM31.6494 22.6187L31.4654 22.3872L31.459 22.3923L31.4529 22.3977L31.6494 22.6187ZM31.7902 22.479L32.0202 22.665L32.0859 22.5837L32.0859 22.4792L31.7902 22.479ZM31.6493 22.6188L31.4528 22.3977L31.4503 22.3999L31.6493 22.6188ZM31.4957 22.7636L31.6906 22.986L31.6985 22.9791L31.7059 22.9716L31.4957 22.7636ZM26.7051 22.6032H26.4094V22.7257L26.496 22.8123L26.7051 22.6032ZM26.7051 8.9249V8.62915H26.4094V8.9249H26.7051ZM31.7979 8.9249L32.0936 8.92506L32.0938 8.62915H31.7979V8.9249ZM8.48969 8.92407V8.62833H8.19394V8.92407H8.48969ZM13.5338 8.92407H13.8295V8.62833H13.5338V8.92407ZM8.48969 22.6127H8.19394V22.7352L8.28051 22.8218L8.48969 22.6127ZM13.2803 22.7731L13.4751 22.9956L13.4831 22.9886L13.4905 22.9811L13.2803 22.7731ZM13.3842 22.6729L13.1836 22.4555L13.1815 22.4575L13.3842 22.6729ZM13.3842 22.6728L13.5848 22.8902L13.587 22.8881L13.3842 22.6728ZM13.4024 22.6557L13.6052 22.871L13.606 22.8702L13.4024 22.6557ZM13.4313 22.6282L13.2294 22.4122L13.2277 22.4137L13.4313 22.6282ZM13.5338 22.5325L13.7357 22.7486L13.8295 22.6609V22.5325H13.5338ZM19.6502 8.92407H19.946V8.62833H19.6502V8.92407ZM14.5575 8.92407V8.62833H14.2616L14.2618 8.92424L14.5575 8.92407ZM19.6502 22.4782L19.8828 22.6609L19.946 22.5805V22.4782H19.6502ZM19.5094 22.6179L19.3287 22.3838L19.3193 22.3911L19.3104 22.3991L19.5094 22.6179ZM19.3558 22.7627L19.5505 22.9854L19.5585 22.9784L19.5659 22.9708L19.3558 22.7627ZM14.5652 22.6024L14.2694 22.6025L14.2695 22.725L14.3561 22.8116L14.5652 22.6024ZM20.6736 8.92407V8.62833H20.378L20.3779 8.92396L20.6736 8.92407ZM25.6665 8.92407H25.9623V8.62833H25.6665V8.92407ZM20.6685 22.6593L20.3728 22.6592L20.3727 22.785L20.4634 22.8723L20.6685 22.6593ZM25.4105 22.7731L25.6054 22.9958L25.6134 22.9883L25.4105 22.7731ZM25.5641 22.6282L25.3622 22.4122L25.3612 22.4131L25.5641 22.6282ZM25.6665 22.5325L25.8684 22.7486L25.9623 22.6609V22.5325H25.6665ZM1.34369 9.4825H1.63961L1.63927 9.47252L1.34369 9.4825ZM1.34369 20.0128L1.04793 20.0128L1.04797 20.0164L1.34369 20.0128ZM1.50012 9.0818L1.28994 8.87375L1.28993 8.87375L1.50012 9.0818ZM1.89675 8.92378L1.88656 9.21952H1.89675V8.92378ZM7.45548 8.92378H7.75122V8.62803H7.45548V8.92378ZM7.45548 22.5167L7.6699 22.7204L7.75122 22.6348V22.5167H7.45548ZM5.29958 23.6212L5.31112 23.9167L5.32517 23.9162L5.3391 23.9143L5.29958 23.6212ZM2.93373 23.0004L2.76646 23.2443L2.77253 23.2485L2.77879 23.2523L2.93373 23.0004ZM19.0849 42.9916V43.2874H19.3803L19.3807 42.992L19.0849 42.9916ZM8.58246 42.9916H8.28671V43.2874H8.58246V42.9916ZM19.1003 29.0915L19.396 29.0918L19.3961 29.0758L19.3943 29.0599L19.1003 29.0915ZM18.9159 28.9079L18.9441 28.6135L18.93 28.6121H18.9159V28.9079ZM8.76936 28.9079V28.6121H8.75873L8.74813 28.6129L8.76936 28.9079ZM8.58246 29.0915L8.28813 29.0626L8.28671 29.077V29.0915H8.58246ZM19.0834 44.0255H19.3792V43.7298H19.0834V44.0255ZM8.57166 44.0255V43.7298H8.27423L8.27592 44.0272L8.57166 44.0255ZM19.0834 45.8359V46.1317H19.3792V45.8359H19.0834ZM8.5819 45.8359L8.28616 45.8376L8.28782 46.1317H8.5819V45.8359ZM38.8184 20.012L38.5226 20.0126L38.5226 20.0143L38.8184 20.012ZM36.7702 23.2839L36.6444 23.0162L36.3826 23.1391L36.4997 23.4036L36.7702 23.2839ZM38.7953 9.48245L38.4995 9.47247L38.4996 9.4831L38.7953 9.48245ZM38.6389 9.08179L38.8491 8.87374L38.8491 8.87373L38.6389 9.08179ZM38.2423 8.92378V9.2197L38.2525 9.21935L38.2423 8.92378ZM32.7787 8.92378V8.62803H32.483V8.92378H32.7787ZM32.7787 22.6838H32.483V22.8073L32.5708 22.8941L32.7787 22.6838ZM34.768 23.6356L35.0626 23.6626L35.089 23.3738L34.8008 23.3417L34.768 23.6356ZM34.6733 24.6702L34.6414 24.9642L34.9404 24.9967L34.9678 24.6972L34.6733 24.6702ZM32.1719 23.5296L32.3727 23.3124L32.1748 23.1295L31.9743 23.3095L32.1719 23.5296ZM32.1489 23.5503L32.3465 23.7703L32.3465 23.7703L32.1489 23.5503ZM29.1637 24.6935L29.1642 24.3977L29.1635 24.3977L29.1637 24.6935ZM26.1118 23.5218L26.3095 23.3018L26.1119 23.1243L25.9142 23.3018L26.1118 23.5218ZM26.0888 23.5425L26.2851 23.7637L26.2864 23.7626L26.0888 23.5425ZM20.0517 23.5115L20.2503 23.2923L20.0406 23.1023L19.8415 23.3034L20.0517 23.5115ZM20.0312 23.5322L20.2275 23.7534L20.2347 23.747L20.2414 23.7402L20.0312 23.5322ZM13.9916 23.5011L14.1902 23.2819L13.9925 23.1029L13.794 23.2811L13.9916 23.5011ZM13.9686 23.5218L14.1648 23.7431L14.1662 23.7419L13.9686 23.5218ZM7.93152 23.4934L8.12977 23.2739L7.93373 23.0968L7.73572 23.2717L7.93152 23.4934ZM6.39537 24.396L6.2972 24.1171L6.09962 24.1866V24.396H6.39537ZM6.39537 24.4116L6.50472 24.6863L6.69111 24.6122V24.4116H6.39537ZM5.03843 24.6702L5.03912 24.3745H5.03843V24.6702ZM4.78241 24.6702V24.3745H4.48667V24.6702H4.78241ZM4.78241 45.8431H4.48667V46.1388H4.78241V45.8431ZM7.56284 45.8431V46.1388H7.85858V45.8431H7.56284ZM7.56284 29.0905L7.26709 29.0862V29.0905H7.56284ZM8.76872 27.8723V27.5765L8.76437 27.5766L8.76872 27.8723ZM18.9099 27.8723L18.9136 27.5765H18.9099V27.8723ZM20.1183 29.0905L20.4141 29.0905L20.414 29.0862L20.1183 29.0905ZM20.1183 45.8431H19.8226V46.1388H20.1183V45.8431ZM35.403 45.8431V46.1388H35.6987V45.8431H35.403ZM35.403 24.6004H35.6987V24.3046H35.403V24.6004ZM34.7885 24.6004L34.4929 24.5923L34.4846 24.8961H34.7885V24.6004ZM34.8167 23.5658L34.8249 23.2702L34.5291 23.262L34.521 23.5577L34.8167 23.5658ZM36.6985 23.3252L36.9427 23.1585L36.7878 22.9315L36.55 23.0695L36.6985 23.3252ZM36.9545 23.7003L36.7102 23.867L37.2249 23.5806L36.9545 23.7003ZM36.2854 8.18427H38.2747V7.59279H36.2854V8.18427ZM35.9897 4.94257V7.88853H36.5812V4.94257H35.9897ZM34.1126 3.03466C35.1474 3.04079 35.9885 3.89018 35.9897 4.94291L36.5812 4.94224C36.5796 3.5701 35.4815 2.45127 34.1161 2.44319L34.1126 3.03466ZM29.9463 3.03467H34.1143V2.44318H29.9463V3.03467ZM27.5299 1.16207C28.5285 1.15184 29.4084 1.83072 29.6598 2.81229L30.2328 2.66556C29.9148 1.42373 28.7985 0.557559 27.5239 0.570612L27.5299 1.16207ZM12.4702 1.16209H27.5269V0.570596H12.4702V1.16209ZM10.3361 2.85088C10.5719 1.85262 11.4573 1.1543 12.468 1.16208L12.4725 0.570605C11.182 0.560673 10.0588 1.45183 9.76045 2.71491L10.3361 2.85088ZM5.6959 3.07864H10.0483V2.48715H5.6959V3.07864ZM3.8129 4.98654C3.8129 3.93087 4.65858 3.07987 5.69625 3.07864L5.69555 2.48715C4.32582 2.48877 3.22141 3.61016 3.22141 4.98654L3.8129 4.98654ZM3.8129 7.88853V4.98654H3.22141V7.88853H3.8129ZM1.90678 8.18427H3.51716V7.59279H1.90678V8.18427ZM0.989092 8.55476C1.23166 8.31128 1.56081 8.17799 1.90136 8.18423L1.9122 7.59284C1.40974 7.58363 0.925622 7.78041 0.57007 8.13729L0.989092 8.55476ZM0.615167 9.47837C0.611163 9.13147 0.746416 8.79834 0.989093 8.55476L0.57007 8.13729C0.214627 8.49405 0.0178909 8.98037 0.0237172 9.48519L0.615167 9.47837ZM0.615187 20.0112V9.48178H0.0236975V20.0112H0.615187ZM2.53443 23.613C1.34879 22.8031 0.630819 21.4561 0.615169 20.008L0.0237148 20.0144C0.0414341 21.654 0.854345 23.1817 2.2008 24.1014L2.53443 23.613ZM2.38298 23.5615H2.36762V24.153H2.38298V23.5615ZM3.11519 23.9462C2.91948 23.8499 2.73113 23.739 2.55172 23.6143L2.21424 24.1001C2.41792 24.2416 2.63178 24.3676 2.85407 24.4769L3.11519 23.9462ZM2.68889 24.1883V24.2116H3.28038V24.1883H2.68889ZM3.836 24.1916C3.58719 24.1186 3.34385 24.0276 3.10787 23.9194L2.86139 24.4571C3.12323 24.5772 3.39325 24.6781 3.66939 24.7592L3.836 24.1916ZM4.04844 46.8662V24.4754H3.45695V46.8662H4.04844ZM36.4185 46.5705H3.7527V47.162H36.4185V46.5705ZM36.1228 24.4883V46.8662H36.7143V24.4883H36.1228ZM37.0818 23.9465C36.8613 24.0715 36.6208 24.156 36.3713 24.1964L36.4657 24.7803C36.7847 24.7287 37.0919 24.6206 37.3734 24.4611L37.0818 23.9465ZM39.5509 20.0123C39.5573 21.6918 38.6006 23.2213 37.1003 23.9369L37.3549 24.4707C39.064 23.6557 40.1496 21.916 40.1424 20.0101L39.5509 20.0123ZM39.5509 9.48178V20.0112H40.1424V9.48178H39.5509ZM39.1814 8.55935C39.4213 8.80256 39.5549 9.13373 39.551 9.47841L40.1424 9.48515C40.1481 8.98356 39.9539 8.50013 39.6024 8.14393L39.1814 8.55935ZM38.2772 8.18426C38.6156 8.18143 38.9415 8.31625 39.1814 8.55935L39.6024 8.14392C39.2509 7.78761 38.7715 7.58862 38.2722 7.5928L38.2772 8.18426ZM11.2116 2.12782C10.8773 2.46557 10.6922 2.92444 10.6972 3.40076L11.2887 3.39458C11.2853 3.07532 11.4094 2.76877 11.632 2.54393L11.2116 2.12782ZM12.476 1.60688C12.0017 1.60183 11.5461 1.78996 11.2116 2.12782L11.632 2.54393C11.8545 2.3192 12.1565 2.195 12.4697 2.19834L12.476 1.60688ZM27.5305 1.60686H12.4728V2.19835H27.5305V1.60686ZM28.7917 2.12782C28.4573 1.78996 28.0016 1.60183 27.5273 1.60688L27.5336 2.19834C27.8469 2.195 28.1489 2.3192 28.3713 2.54393L28.7917 2.12782ZM29.3061 3.40076C29.3111 2.92444 29.126 2.46557 28.7917 2.12782L28.3713 2.54393C28.5939 2.76877 28.718 3.07532 28.7146 3.39458L29.3061 3.40076ZM29.3061 3.53993V3.39767H28.7146V3.53993H29.3061ZM28.7917 4.80978C29.126 4.47204 29.3111 4.01316 29.3061 3.53685L28.7146 3.54302C28.718 3.86228 28.5939 4.16884 28.3713 4.39367L28.7917 4.80978ZM27.5273 5.33072C28.0016 5.33577 28.4573 5.14764 28.7917 4.80978L28.3713 4.39367C28.1489 4.6184 27.8469 4.7426 27.5336 4.73927L27.5273 5.33072ZM12.4728 5.33074H27.5305V4.73925H12.4728V5.33074ZM11.2116 4.80978C11.5461 5.14764 12.0017 5.33577 12.476 5.33072L12.4697 4.73927C12.1565 4.7426 11.8545 4.6184 11.632 4.39367L11.2116 4.80978ZM10.6972 3.53685C10.6922 4.01316 10.8773 4.47204 11.2116 4.80978L11.632 4.39367C11.4094 4.16884 11.2853 3.86228 11.2887 3.54302L10.6972 3.53685ZM10.6972 3.39767V3.53993H11.2887V3.39767H10.6972ZM4.84782 4.98584C4.84475 4.75467 4.93355 4.53248 5.0934 4.36882L4.67026 3.95553C4.39996 4.23226 4.25124 4.60624 4.25639 4.9937L4.84782 4.98584ZM4.84785 7.8893V4.98977H4.25636V7.8893H4.84785ZM35.2735 7.59355H4.55211V8.18504H35.2735V7.59355ZM34.9777 4.94322V7.8893H35.5692V4.94322H34.9777ZM34.7274 4.3215C34.8893 4.48502 34.9798 4.70804 34.9778 4.94059L35.5692 4.94584C35.5727 4.55656 35.4212 4.18159 35.1478 3.90539L34.7274 4.3215ZM34.1189 4.06983C34.3463 4.06777 34.5656 4.15809 34.7274 4.3215L35.1478 3.90539C34.8743 3.62908 34.5017 3.47485 34.1135 3.47836L34.1189 4.06983ZM30.0197 4.06984H34.1162V3.47835H30.0197V4.06984ZM27.5138 6.36149C28.9726 6.38332 30.1943 5.26044 30.3144 3.79831L29.7249 3.74988C29.6299 4.90687 28.6651 5.78717 27.5227 5.77007L27.5138 6.36149ZM12.461 6.36152H27.5183V5.77004H12.461V6.36152ZM9.67807 3.84772C9.82282 5.28403 11.0286 6.37647 12.464 6.36151L12.4579 5.77005C11.3334 5.78177 10.3811 4.92511 10.2666 3.78841L9.67807 3.84772ZM5.69657 4.11381H9.97232V3.52232H5.69657V4.11381ZM5.0934 4.36882C5.25315 4.20527 5.47045 4.11379 5.69655 4.11381L5.6966 3.52232C5.31027 3.52229 4.94067 3.67868 4.67026 3.95553L5.0934 4.36882ZM31.8334 22.8503C31.9022 22.7955 31.9648 22.7334 32.0202 22.665L31.5602 22.2931C31.532 22.3279 31.5002 22.3595 31.4654 22.3872L31.8334 22.8503ZM31.8458 22.8398L31.8458 22.8398L31.4529 22.3977L31.4528 22.3977L31.8458 22.8398ZM31.7059 22.9716C31.7508 22.9263 31.7963 22.8848 31.8483 22.8376L31.4503 22.3999C31.3999 22.4458 31.343 22.4974 31.2855 22.5555L31.7059 22.9716ZM26.496 22.8123C27.9158 24.2328 30.1805 24.3088 31.6906 22.986L31.3009 22.5411C30.0254 23.6583 28.1141 23.5945 26.9143 22.3941L26.496 22.8123ZM26.4094 8.9249V22.6032H27.0009V8.9249H26.4094ZM31.7979 8.62915H26.7051V9.22064H31.7979V8.62915ZM32.0859 22.4792L32.0936 8.92506L31.5021 8.92473L31.4944 22.4789L32.0859 22.4792ZM8.48969 9.21982H13.5338V8.62833H8.48969V9.21982ZM8.78543 22.6127V8.92407H8.19394V22.6127H8.78543ZM13.0854 22.5506C11.8099 23.6678 9.89866 23.604 8.69886 22.4036L8.28051 22.8218C9.70033 24.2423 11.965 24.3183 13.4751 22.9956L13.0854 22.5506ZM13.1815 22.4575C13.1479 22.4891 13.1092 22.5255 13.0701 22.565L13.4905 22.9811C13.5211 22.9502 13.5523 22.9208 13.5869 22.8882L13.1815 22.4575ZM13.1836 22.4555L13.1836 22.4555L13.5848 22.8902L13.5848 22.8901L13.1836 22.4555ZM13.1996 22.4405L13.1814 22.4576L13.587 22.8881L13.6052 22.871L13.1996 22.4405ZM13.2277 22.4137L13.1988 22.4412L13.606 22.8702L13.6349 22.8427L13.2277 22.4137ZM13.3318 22.3165L13.2294 22.4122L13.6333 22.8443L13.7357 22.7486L13.3318 22.3165ZM13.238 8.92407V22.5325H13.8295V8.92407H13.238ZM19.6502 8.62833H14.5575V9.21982H19.6502V8.62833ZM19.946 22.4782V8.92407H19.3545V22.4782H19.946ZM19.6901 22.852C19.762 22.7965 19.8267 22.7323 19.8828 22.6609L19.4176 22.2955C19.3916 22.3286 19.3618 22.3583 19.3287 22.3838L19.6901 22.852ZM19.5659 22.9708C19.6108 22.9255 19.6564 22.8839 19.7083 22.8367L19.3104 22.3991C19.26 22.445 19.2031 22.4966 19.1456 22.5547L19.5659 22.9708ZM14.3561 22.8116C15.7765 24.2307 18.04 24.3066 19.5505 22.9854L19.1611 22.5401C17.8851 23.6563 15.9746 23.5925 14.7742 22.3932L14.3561 22.8116ZM14.2618 8.92424L14.2694 22.6025L14.8609 22.6022L14.8532 8.92391L14.2618 8.92424ZM20.6736 9.21982H25.6665V8.62833H20.6736V9.21982ZM20.9643 22.6594L20.9694 8.92418L20.3779 8.92396L20.3728 22.6592L20.9643 22.6594ZM25.2157 22.5506C23.9579 23.6517 22.0785 23.6067 20.8737 22.4463L20.4634 22.8723C21.8893 24.2457 24.1162 24.2993 25.6053 22.9956L25.2157 22.5506ZM25.3612 22.4131L25.2076 22.5579L25.6134 22.9883L25.767 22.8434L25.3612 22.4131ZM25.4646 22.3165L25.3622 22.4122L25.766 22.8443L25.8684 22.7486L25.4646 22.3165ZM25.3708 8.92407V22.5325H25.9623V8.92407H25.3708ZM1.04795 9.4825V20.0128H1.63944V9.4825H1.04795ZM1.28993 8.87375C1.12753 9.03782 1.04034 9.26192 1.04812 9.49247L1.63927 9.47252C1.63695 9.40369 1.66305 9.3376 1.71031 9.28986L1.28993 8.87375ZM1.90693 8.62821C1.67583 8.62025 1.45246 8.70956 1.28994 8.87375L1.71031 9.28986C1.75744 9.24224 1.82133 9.2171 1.88657 9.21935L1.90693 8.62821ZM7.45548 8.62803H1.89675V9.21952H7.45548V8.62803ZM7.75122 22.5167V8.92378H7.15973V22.5167H7.75122ZM5.3391 23.9143C6.228 23.7945 7.04973 23.3733 7.6699 22.7204L7.24105 22.313C6.71319 22.8687 6.01464 23.2264 5.26006 23.3281L5.3391 23.9143ZM2.77879 23.2523C3.53966 23.7203 4.42048 23.9515 5.31112 23.9167L5.28804 23.3257C4.51493 23.3559 3.74995 23.1552 3.08867 22.7485L2.77879 23.2523ZM1.04797 20.0164C1.06367 21.3105 1.70473 22.5162 2.76646 23.2443L3.101 22.7565C2.19932 22.1381 1.6528 21.1124 1.63942 20.0092L1.04797 20.0164ZM19.0849 42.6959H8.58246V43.2874H19.0849V42.6959ZM18.8045 29.0912L18.7892 42.9913L19.3807 42.992L19.396 29.0918L18.8045 29.0912ZM18.8878 29.2023C18.8428 29.198 18.8105 29.163 18.8062 29.1232L19.3943 29.0599C19.369 28.8247 19.1827 28.6363 18.9441 28.6135L18.8878 29.2023ZM8.76936 29.2036H18.9159V28.6121H8.76936V29.2036ZM8.87679 29.1204C8.87265 29.1626 8.83819 29.1994 8.7906 29.2028L8.74813 28.6129C8.50402 28.6305 8.31172 28.8224 8.28813 29.0626L8.87679 29.1204ZM8.8782 42.9916V29.0915H8.28671V42.9916H8.8782ZM19.0834 43.7298H8.57166V44.3213H19.0834V43.7298ZM19.3792 45.8359V44.0255H18.7877V45.8359H19.3792ZM8.5819 46.1317H19.0834V45.5402H8.5819V46.1317ZM8.27592 44.0272L8.28616 45.8376L8.87764 45.8343L8.8674 44.0238L8.27592 44.0272ZM38.5226 20.0143C38.5326 21.3019 37.7972 22.4749 36.6444 23.0162L36.8959 23.5516C38.2599 22.911 39.1259 21.5258 39.1141 20.0097L38.5226 20.0143ZM38.4996 9.4831L38.5226 20.0126L39.1141 20.0113L39.0911 9.48181L38.4996 9.4831ZM38.4287 9.28984C38.476 9.33758 38.5021 9.40366 38.4997 9.47248L39.0909 9.49243C39.0987 9.26189 39.0115 9.0378 38.8491 8.87374L38.4287 9.28984ZM38.2525 9.21935C38.3177 9.2171 38.3816 9.24224 38.4287 9.28985L38.8491 8.87373C38.6866 8.70955 38.4632 8.62025 38.2321 8.62821L38.2525 9.21935ZM32.7787 9.21952H38.2423V8.62803H32.7787V9.21952ZM33.0745 22.6838V8.92378H32.483V22.6838H33.0745ZM34.8008 23.3417C34.1175 23.2656 33.4787 22.9601 32.9867 22.4735L32.5708 22.8941C33.1569 23.4738 33.919 23.8386 34.7353 23.9296L34.8008 23.3417ZM34.9678 24.6972L35.0626 23.6626L34.4735 23.6087L34.3788 24.6432L34.9678 24.6972ZM31.9712 23.7467C32.7097 24.4294 33.6452 24.8562 34.6414 24.9642L34.7052 24.3762C33.8358 24.2819 33.0185 23.9094 32.3727 23.3124L31.9712 23.7467ZM32.3465 23.7703L32.3696 23.7496L31.9743 23.3095L31.9513 23.3302L32.3465 23.7703ZM29.1631 24.9892C30.3369 24.9915 31.47 24.5574 32.3465 23.7703L31.9513 23.3302C31.1831 24.02 30.191 24.3998 29.1642 24.3977L29.1631 24.9892ZM25.9142 23.7418C26.809 24.5455 27.9654 24.9897 29.1638 24.9892L29.1635 24.3977C28.1119 24.3981 27.0962 24.0084 26.3095 23.3018L25.9142 23.7418ZM26.2864 23.7626L26.3094 23.7419L25.9142 23.3018L25.8912 23.3225L26.2864 23.7626ZM19.8532 23.7306C21.6793 25.3851 24.4424 25.3993 26.2851 23.7637L25.8925 23.3213C24.2755 24.7566 21.8528 24.7441 20.2503 23.2923L19.8532 23.7306ZM20.2414 23.7402L20.2619 23.7195L19.8415 23.3034L19.8211 23.3241L20.2414 23.7402ZM13.7931 23.7203C15.62 25.3751 18.384 25.3893 20.2275 23.7534L19.835 23.311C18.2172 24.7466 15.7935 24.7342 14.1902 23.2819L13.7931 23.7203ZM14.1662 23.7419L14.1892 23.7212L13.794 23.2811L13.771 23.3018L14.1662 23.7419ZM7.73326 23.7128C9.56087 25.3639 12.322 25.3769 14.1648 23.7431L13.7724 23.3005C12.1551 24.7344 9.73378 24.723 8.12977 23.2739L7.73326 23.7128ZM6.49353 24.675C7.09416 24.4637 7.6488 24.1377 8.12731 23.715L7.73572 23.2717C7.31411 23.6441 6.82572 23.9311 6.2972 24.1171L6.49353 24.675ZM6.69111 24.4116V24.396H6.09962V24.4116H6.69111ZM5.03775 24.966C5.5399 24.9671 6.03767 24.8722 6.50472 24.6863L6.28601 24.1368C5.88887 24.2948 5.4658 24.3755 5.03912 24.3745L5.03775 24.966ZM4.78241 24.966H5.03843V24.3745H4.78241V24.966ZM5.07815 45.8431V24.6702H4.48667V45.8431H5.07815ZM7.56284 45.5473H4.78241V46.1388H7.56284V45.5473ZM7.26709 29.0905V45.8431H7.85858V29.0905H7.26709ZM8.76437 27.5766C7.93973 27.5887 7.27901 28.2603 7.26713 29.0862L7.85855 29.0947C7.86592 28.5833 8.27378 28.1753 8.77306 28.168L8.76437 27.5766ZM18.9099 27.5765H8.76872V28.168H18.9099V27.5765ZM20.414 29.0862C20.4021 28.259 19.7395 27.5869 18.9136 27.5765L18.9061 28.168C19.4062 28.1743 19.8152 28.5825 19.8226 29.0948L20.414 29.0862ZM20.414 45.8431V29.0905H19.8226V45.8431H20.414ZM35.403 45.5473H20.1183V46.1388H35.403V45.5473ZM35.1072 24.6004V45.8431H35.6987V24.6004H35.1072ZM35.0855 24.8961H35.403V24.3046H35.0855V24.8961ZM34.7885 24.8961H35.0855V24.3046H34.7885V24.8961ZM34.521 23.5577L34.4929 24.5923L35.0842 24.6084L35.1123 23.5738L34.521 23.5577ZM36.6985 23.3252C36.55 23.0695 36.5502 23.0694 36.5503 23.0693C36.5504 23.0692 36.5506 23.0691 36.5507 23.0691C36.5509 23.069 36.5511 23.0689 36.5513 23.0687C36.5516 23.0685 36.552 23.0683 36.5523 23.0681C36.553 23.0678 36.5535 23.0675 36.5539 23.0673C36.5547 23.0668 36.5551 23.0666 36.5549 23.0667C36.5546 23.0669 36.5524 23.068 36.548 23.0701C36.5393 23.0743 36.5222 23.0819 36.4959 23.092C36.4433 23.1121 36.3534 23.1417 36.2192 23.1712C35.9507 23.2303 35.5047 23.289 34.8249 23.2702L34.8085 23.8614C35.5291 23.8814 36.024 23.8198 36.3463 23.7489C36.5075 23.7134 36.6255 23.6756 36.7069 23.6446C36.7475 23.6291 36.779 23.6152 36.8021 23.6042C36.8136 23.5987 36.8231 23.594 36.8305 23.5901C36.8342 23.5881 36.8375 23.5864 36.8402 23.5848C36.8415 23.5841 36.8428 23.5834 36.8439 23.5828C36.8445 23.5824 36.845 23.5821 36.8455 23.5819C36.8458 23.5817 36.846 23.5816 36.8462 23.5814C36.8463 23.5814 36.8465 23.5813 36.8466 23.5812C36.8467 23.5811 36.8469 23.581 36.6985 23.3252ZM37.1987 23.5335L36.9427 23.1585L36.4542 23.492L36.7102 23.867L37.1987 23.5335ZM36.4997 23.4036L36.6841 23.82L37.2249 23.5806L37.0406 23.1642L36.4997 23.4036Z" fill="#FFB900"/>
<rect x="16.2217" y="36.2998" width="1.02386" height="2.3402" fill="#FFB900"/>
</svg>
